# xmcd CD database file
#
# Track frame offsets:
#	150
#	19616
#	39779
#	59347
#
# Disc length: 1055 seconds
#
# Revision: 0
# Processed by: cddbd v1.5.1PL0 Copyright (c) Steve Scherf et al.
# Submitted via: CDex 1.51
#
DISCID=24041d04
DTITLE=TUBE - 夏祭り
DYEAR=2004
DGENRE=Vocal
TTITLE0=夏祭り
TTITLE1=涙を虹に
TTITLE2=夏祭り(Instrumental)
TTITLE3=涙を虹に(Instrumental)
EXTD=YEAR: 2004
EXTT0=
EXTT1=
EXTT2=
EXTT3=
PLAYORDER=
